<mxfile host="app.diagrams.net" modified="2023-11-25T10:17:17.533Z" agent="Mozilla/5.0 (X11; Linux x86_64) AppleWebKit/537.36 (KHTML, like Gecko) Chrome/119.0.0.0 Safari/537.36" etag="9HyuKwu_5euXnhGrgGR7" version="22.1.4" type="device">
  <diagram name="Page-1" id="kjfFAkuq4WJYA48KYRBB">
    <mxGraphModel dx="999" dy="608" grid="1" gridSize="10" guides="1" tooltips="1" connect="1" arrows="1" fold="1" page="1" pageScale="1" pageWidth="850" pageHeight="1100" math="0" shadow="0">
      <root>
        <mxCell id="0" />
        <mxCell id="1" parent="0" />
        <mxCell id="QCv3PliEFTNqHR0u3MRq-36" style="edgeStyle=orthogonalEdgeStyle;rounded=0;orthogonalLoop=1;jettySize=auto;html=1;strokeColor=#7EA6E0;" parent="1" source="QCv3PliEFTNqHR0u3MRq-21" target="QCv3PliEFTNqHR0u3MRq-5" edge="1">
          <mxGeometry relative="1" as="geometry">
            <Array as="points">
              <mxPoint x="130" y="150" />
              <mxPoint x="130" y="150" />
            </Array>
          </mxGeometry>
        </mxCell>
        <mxCell id="TiFG9VolYV1T_LwkWkyO-4" value="Manage" style="edgeLabel;html=1;align=center;verticalAlign=middle;resizable=0;points=[];" parent="QCv3PliEFTNqHR0u3MRq-36" vertex="1" connectable="0">
          <mxGeometry x="0.2267" y="1" relative="1" as="geometry">
            <mxPoint x="-52" y="1" as="offset" />
          </mxGeometry>
        </mxCell>
        <mxCell id="QCv3PliEFTNqHR0u3MRq-37" style="edgeStyle=orthogonalEdgeStyle;rounded=0;orthogonalLoop=1;jettySize=auto;html=1;strokeColor=#EA6B66;entryX=0;entryY=0.5;entryDx=0;entryDy=0;" parent="1" source="yOjKGkSzRIl2B6AKvalP-2" target="QCv3PliEFTNqHR0u3MRq-20" edge="1">
          <mxGeometry relative="1" as="geometry">
            <mxPoint x="110" y="290" as="sourcePoint" />
            <Array as="points">
              <mxPoint x="180" y="290" />
              <mxPoint x="180" y="377" />
            </Array>
            <mxPoint x="170" y="370" as="targetPoint" />
          </mxGeometry>
        </mxCell>
        <mxCell id="TiFG9VolYV1T_LwkWkyO-3" value="Create/Update &quot;places&quot;" style="edgeLabel;html=1;align=center;verticalAlign=middle;resizable=0;points=[];" parent="QCv3PliEFTNqHR0u3MRq-37" vertex="1" connectable="0">
          <mxGeometry x="-0.2891" relative="1" as="geometry">
            <mxPoint x="-16" y="13" as="offset" />
          </mxGeometry>
        </mxCell>
        <mxCell id="QCv3PliEFTNqHR0u3MRq-21" value="Admin" style="shape=umlActor;verticalLabelPosition=bottom;verticalAlign=top;html=1;outlineConnect=0;" parent="1" vertex="1">
          <mxGeometry x="41" y="120" width="30" height="60" as="geometry" />
        </mxCell>
        <mxCell id="QCv3PliEFTNqHR0u3MRq-44" style="edgeStyle=orthogonalEdgeStyle;rounded=0;orthogonalLoop=1;jettySize=auto;html=1;strokeColor=#4D9900;entryX=0.002;entryY=0.85;entryDx=0;entryDy=0;entryPerimeter=0;" parent="1" source="QCv3PliEFTNqHR0u3MRq-22" edge="1">
          <mxGeometry relative="1" as="geometry">
            <mxPoint x="252.24" y="410.95000000000005" as="targetPoint" />
            <Array as="points" />
          </mxGeometry>
        </mxCell>
        <mxCell id="TiFG9VolYV1T_LwkWkyO-1" value="Fetch &quot;places&quot;" style="edgeLabel;html=1;align=center;verticalAlign=middle;resizable=0;points=[];" parent="QCv3PliEFTNqHR0u3MRq-44" vertex="1" connectable="0">
          <mxGeometry x="-0.3227" y="1" relative="1" as="geometry">
            <mxPoint x="14" as="offset" />
          </mxGeometry>
        </mxCell>
        <mxCell id="QCv3PliEFTNqHR0u3MRq-22" value="User" style="shape=umlActor;verticalLabelPosition=bottom;verticalAlign=top;html=1;outlineConnect=0;" parent="1" vertex="1">
          <mxGeometry x="41" y="380" width="30" height="60" as="geometry" />
        </mxCell>
        <mxCell id="QCv3PliEFTNqHR0u3MRq-33" style="edgeStyle=orthogonalEdgeStyle;rounded=0;orthogonalLoop=1;jettySize=auto;html=1;" parent="1" source="QCv3PliEFTNqHR0u3MRq-5" target="QCv3PliEFTNqHR0u3MRq-1" edge="1">
          <mxGeometry relative="1" as="geometry">
            <Array as="points">
              <mxPoint x="430" y="120" />
              <mxPoint x="430" y="120" />
            </Array>
          </mxGeometry>
        </mxCell>
        <mxCell id="QCv3PliEFTNqHR0u3MRq-34" style="edgeStyle=orthogonalEdgeStyle;rounded=0;orthogonalLoop=1;jettySize=auto;html=1;strokeColor=#000000;" parent="1" source="QCv3PliEFTNqHR0u3MRq-5" target="QCv3PliEFTNqHR0u3MRq-20" edge="1">
          <mxGeometry relative="1" as="geometry" />
        </mxCell>
        <mxCell id="QCv3PliEFTNqHR0u3MRq-45" value="apikey" style="verticalLabelPosition=bottom;html=1;verticalAlign=top;align=center;strokeColor=none;fillColor=#00BEF2;shape=mxgraph.azure.access_control;fontStyle=1" parent="1" vertex="1">
          <mxGeometry x="321" y="261" width="30" height="30" as="geometry" />
        </mxCell>
        <mxCell id="QCv3PliEFTNqHR0u3MRq-48" value="jwt" style="verticalLabelPosition=bottom;html=1;verticalAlign=top;align=center;strokeColor=none;fillColor=#00BEF2;shape=mxgraph.azure.access_control;fontStyle=1" parent="1" vertex="1">
          <mxGeometry x="218" y="98" width="30" height="30" as="geometry" />
        </mxCell>
        <mxCell id="QCv3PliEFTNqHR0u3MRq-50" value="&lt;b&gt;jwt&lt;/b&gt;" style="verticalLabelPosition=bottom;html=1;verticalAlign=top;align=center;strokeColor=none;fillColor=#00BEF2;shape=mxgraph.azure.access_control;" parent="1" vertex="1">
          <mxGeometry x="218" y="325" width="30" height="30" as="geometry" />
        </mxCell>
        <mxCell id="yOjKGkSzRIl2B6AKvalP-3" style="edgeStyle=orthogonalEdgeStyle;rounded=0;orthogonalLoop=1;jettySize=auto;html=1;strokeColor=#EA6B66;" parent="1" source="yOjKGkSzRIl2B6AKvalP-2" target="QCv3PliEFTNqHR0u3MRq-1" edge="1">
          <mxGeometry relative="1" as="geometry">
            <Array as="points">
              <mxPoint x="180" y="280" />
              <mxPoint x="180" y="70" />
              <mxPoint x="580" y="70" />
            </Array>
          </mxGeometry>
        </mxCell>
        <mxCell id="TiFG9VolYV1T_LwkWkyO-2" value="Authenticate" style="edgeLabel;html=1;align=center;verticalAlign=middle;resizable=0;points=[];" parent="yOjKGkSzRIl2B6AKvalP-3" vertex="1" connectable="0">
          <mxGeometry x="-0.9028" y="1" relative="1" as="geometry">
            <mxPoint x="66" y="-18" as="offset" />
          </mxGeometry>
        </mxCell>
        <mxCell id="yOjKGkSzRIl2B6AKvalP-2" value="Contributor" style="shape=umlActor;verticalLabelPosition=bottom;verticalAlign=top;html=1;outlineConnect=0;" parent="1" vertex="1">
          <mxGeometry x="41" y="250" width="30" height="60" as="geometry" />
        </mxCell>
        <mxCell id="yOjKGkSzRIl2B6AKvalP-4" style="edgeStyle=orthogonalEdgeStyle;rounded=0;orthogonalLoop=1;jettySize=auto;html=1;exitX=0.25;exitY=0;exitDx=0;exitDy=0;entryX=0.25;entryY=1;entryDx=0;entryDy=0;strokeColor=#EA6B66;" parent="1" source="QCv3PliEFTNqHR0u3MRq-20" target="QCv3PliEFTNqHR0u3MRq-5" edge="1">
          <mxGeometry relative="1" as="geometry" />
        </mxCell>
        <mxCell id="yOjKGkSzRIl2B6AKvalP-5" value="&lt;b&gt;jwt&lt;/b&gt;" style="verticalLabelPosition=bottom;html=1;verticalAlign=top;align=center;strokeColor=none;fillColor=#00BEF2;shape=mxgraph.azure.access_control;" parent="1" vertex="1">
          <mxGeometry x="250" y="212" width="30" height="30" as="geometry" />
        </mxCell>
        <mxCell id="QCv3PliEFTNqHR0u3MRq-20" value="API" style="rounded=0;whiteSpace=wrap;html=1;" parent="1" vertex="1">
          <mxGeometry x="252" y="313" width="120" height="127" as="geometry" />
        </mxCell>
        <mxCell id="QCv3PliEFTNqHR0u3MRq-32" value="" style="shape=image;verticalLabelPosition=bottom;labelBackgroundColor=default;verticalAlign=top;aspect=fixed;imageAspect=0;image=https://static-00.iconduck.com/assets.00/dotnet-icon-256x256-ozvjws7o.png;container=0;" parent="1" vertex="1">
          <mxGeometry x="332.28" y="399.639756097561" width="38.71951219512195" height="38.71951219512195" as="geometry" />
        </mxCell>
        <mxCell id="QCv3PliEFTNqHR0u3MRq-5" value="CMS Directus" style="rounded=0;whiteSpace=wrap;html=1;" parent="1" vertex="1">
          <mxGeometry x="252" y="90" width="120" height="120" as="geometry" />
        </mxCell>
        <mxCell id="QCv3PliEFTNqHR0u3MRq-6" value="" style="shape=image;verticalLabelPosition=bottom;labelBackgroundColor=default;verticalAlign=top;aspect=fixed;imageAspect=0;image=https://progsoft.net/images/directus-icon-eef4bb3122109f8b035ecf997c3adf5edd57a797.png;" parent="1" vertex="1">
          <mxGeometry x="321" y="178" width="49.46" height="30" as="geometry" />
        </mxCell>
        <mxCell id="QCv3PliEFTNqHR0u3MRq-1" value="Keycloak" style="whiteSpace=wrap;html=1;aspect=fixed;" parent="1" vertex="1">
          <mxGeometry x="519" y="90" width="120" height="120" as="geometry" />
        </mxCell>
        <mxCell id="QCv3PliEFTNqHR0u3MRq-3" value="" style="shape=image;verticalLabelPosition=bottom;labelBackgroundColor=default;verticalAlign=top;aspect=fixed;imageAspect=0;image=https://cf.appdrag.com/dashboard-openvm-clo-b2d42c/uploads/Keycloak-VC4L-19JH.png;" parent="1" vertex="1">
          <mxGeometry x="599" y="170" width="40" height="40" as="geometry" />
        </mxCell>
        <mxCell id="53KL9uGMBaaXwWSXgC7d-5" value="" style="group" parent="1" vertex="1" connectable="0">
          <mxGeometry x="430" y="128" width="50" height="70" as="geometry" />
        </mxCell>
        <mxCell id="53KL9uGMBaaXwWSXgC7d-1" value="" style="shape=cylinder3;whiteSpace=wrap;html=1;boundedLbl=1;backgroundOutline=1;size=15;" parent="53KL9uGMBaaXwWSXgC7d-5" vertex="1">
          <mxGeometry width="50" height="70" as="geometry" />
        </mxCell>
        <mxCell id="53KL9uGMBaaXwWSXgC7d-2" value="" style="shape=image;verticalLabelPosition=bottom;labelBackgroundColor=default;verticalAlign=top;aspect=fixed;imageAspect=0;image=https://gitlab.com/uploads/-/system/project/avatar/14435711/redis_flat.png;" parent="53KL9uGMBaaXwWSXgC7d-5" vertex="1">
          <mxGeometry x="10.5" y="32" width="29" height="29" as="geometry" />
        </mxCell>
        <mxCell id="53KL9uGMBaaXwWSXgC7d-9" style="edgeStyle=orthogonalEdgeStyle;rounded=0;orthogonalLoop=1;jettySize=auto;html=1;entryX=0;entryY=0;entryDx=0;entryDy=22.5;entryPerimeter=0;" parent="1" source="QCv3PliEFTNqHR0u3MRq-5" target="53KL9uGMBaaXwWSXgC7d-1" edge="1">
          <mxGeometry relative="1" as="geometry" />
        </mxCell>
        <mxCell id="QCv3PliEFTNqHR0u3MRq-27" style="edgeStyle=orthogonalEdgeStyle;rounded=0;orthogonalLoop=1;jettySize=auto;html=1;exitX=1;exitY=0.5;exitDx=0;exitDy=0;entryX=0;entryY=0;entryDx=0;entryDy=30;entryPerimeter=0;" parent="1" source="QCv3PliEFTNqHR0u3MRq-1" target="QCv3PliEFTNqHR0u3MRq-8" edge="1">
          <mxGeometry relative="1" as="geometry" />
        </mxCell>
        <mxCell id="QCv3PliEFTNqHR0u3MRq-28" style="edgeStyle=orthogonalEdgeStyle;rounded=0;orthogonalLoop=1;jettySize=auto;html=1;exitX=1;exitY=0.75;exitDx=0;exitDy=0;entryX=0;entryY=0;entryDx=0;entryDy=30;entryPerimeter=0;" parent="1" source="QCv3PliEFTNqHR0u3MRq-5" target="QCv3PliEFTNqHR0u3MRq-25" edge="1">
          <mxGeometry relative="1" as="geometry">
            <mxPoint x="360" y="180" as="sourcePoint" />
            <Array as="points">
              <mxPoint x="390" y="180" />
              <mxPoint x="390" y="230" />
            </Array>
            <mxPoint x="610" y="250" as="targetPoint" />
          </mxGeometry>
        </mxCell>
        <mxCell id="QCv3PliEFTNqHR0u3MRq-40" style="edgeStyle=orthogonalEdgeStyle;rounded=0;orthogonalLoop=1;jettySize=auto;html=1;strokeColor=#000000;entryX=0;entryY=0;entryDx=0;entryDy=30;entryPerimeter=0;" parent="1" source="QCv3PliEFTNqHR0u3MRq-20" target="QCv3PliEFTNqHR0u3MRq-16" edge="1">
          <mxGeometry relative="1" as="geometry">
            <mxPoint x="590" y="350" as="targetPoint" />
            <Array as="points">
              <mxPoint x="480" y="370" />
              <mxPoint x="480" y="370" />
            </Array>
          </mxGeometry>
        </mxCell>
        <mxCell id="moUvcJOzhX5isvKyKglz-6" value="" style="group" vertex="1" connectable="0" parent="1">
          <mxGeometry x="440" y="480" width="120" height="120" as="geometry" />
        </mxCell>
        <mxCell id="moUvcJOzhX5isvKyKglz-1" value="Cerbos" style="whiteSpace=wrap;html=1;aspect=fixed;" vertex="1" parent="moUvcJOzhX5isvKyKglz-6">
          <mxGeometry width="120" height="120" as="geometry" />
        </mxCell>
        <mxCell id="moUvcJOzhX5isvKyKglz-5" value="" style="shape=image;verticalLabelPosition=bottom;labelBackgroundColor=default;verticalAlign=top;aspect=fixed;imageAspect=0;image=https://cdn.theorg.com/8e81b632-d80b-44a0-b9b8-344801daac3f_medium.jpg;" vertex="1" parent="moUvcJOzhX5isvKyKglz-6">
          <mxGeometry x="70" y="70" width="50" height="50" as="geometry" />
        </mxCell>
        <mxCell id="moUvcJOzhX5isvKyKglz-7" value="" style="group" vertex="1" connectable="0" parent="1">
          <mxGeometry x="680" y="320" width="140" height="120" as="geometry" />
        </mxCell>
        <mxCell id="QCv3PliEFTNqHR0u3MRq-41" value="" style="rounded=0;whiteSpace=wrap;html=1;" parent="moUvcJOzhX5isvKyKglz-7" vertex="1">
          <mxGeometry width="140" height="120" as="geometry" />
        </mxCell>
        <mxCell id="QCv3PliEFTNqHR0u3MRq-16" value="" style="shape=cylinder3;whiteSpace=wrap;html=1;boundedLbl=1;backgroundOutline=1;size=15;" parent="moUvcJOzhX5isvKyKglz-7" vertex="1">
          <mxGeometry x="11.669999999999959" y="20" width="38.33" height="50" as="geometry" />
        </mxCell>
        <mxCell id="QCv3PliEFTNqHR0u3MRq-18" value="" style="shape=image;verticalLabelPosition=bottom;labelBackgroundColor=default;verticalAlign=top;aspect=fixed;imageAspect=0;image=https://miro.medium.com/v2/resize:fit:256/1*XR69xeq43LgKB0T_LjZqwQ.png;" parent="moUvcJOzhX5isvKyKglz-7" vertex="1">
          <mxGeometry x="71" y="57" width="60" height="60" as="geometry" />
        </mxCell>
        <mxCell id="moUvcJOzhX5isvKyKglz-8" value="" style="group" vertex="1" connectable="0" parent="1">
          <mxGeometry x="684" y="110" width="141" height="170" as="geometry" />
        </mxCell>
        <mxCell id="QCv3PliEFTNqHR0u3MRq-24" value="" style="rounded=0;whiteSpace=wrap;html=1;" parent="moUvcJOzhX5isvKyKglz-8" vertex="1">
          <mxGeometry width="141" height="160" as="geometry" />
        </mxCell>
        <mxCell id="QCv3PliEFTNqHR0u3MRq-8" value="" style="shape=cylinder3;whiteSpace=wrap;html=1;boundedLbl=1;backgroundOutline=1;size=15;" parent="moUvcJOzhX5isvKyKglz-8" vertex="1">
          <mxGeometry x="15" y="10" width="36" height="50" as="geometry" />
        </mxCell>
        <mxCell id="QCv3PliEFTNqHR0u3MRq-13" value="" style="shape=image;verticalLabelPosition=bottom;labelBackgroundColor=default;verticalAlign=top;aspect=fixed;imageAspect=0;image=https://blog.shanelee.name/content/images/2017/04/mariadb.png;" parent="moUvcJOzhX5isvKyKglz-8" vertex="1">
          <mxGeometry x="60" y="90" width="81" height="80" as="geometry" />
        </mxCell>
        <mxCell id="QCv3PliEFTNqHR0u3MRq-25" value="" style="shape=cylinder3;whiteSpace=wrap;html=1;boundedLbl=1;backgroundOutline=1;size=15;" parent="moUvcJOzhX5isvKyKglz-8" vertex="1">
          <mxGeometry x="15" y="90" width="36" height="50" as="geometry" />
        </mxCell>
      </root>
    </mxGraphModel>
  </diagram>
</mxfile>
